<?xml version="1.0" standalone="no"?>
<!DOCTYPE svg PUBLIC "-//W3C//DTD SVG 20010904//EN"
 "http://www.w3.org/TR/2001/REC-SVG-20010904/DTD/svg10.dtd">
<svg version="1.0" xmlns="http://www.w3.org/2000/svg"
 width="800.000000pt" height="800.000000pt" viewBox="0 0 800.000000 800.000000"
 preserveAspectRatio="xMidYMid meet">

<g transform="translate(0.000000,800.000000) scale(0.100000,-0.100000)"
fill="rgb(202,138,4)" stroke="none">
<path d="M4285 5530 l-1415 -1415 703 -703 c386 -386 707 -702 712 -702 6 0
644 634 1419 1409 l1409 1409 -117 589 c-65 323 -120 590 -122 592 -2 2 -267
56 -588 120 l-586 116 -1415 -1415z"/>
<path d="M2347 3969 c-104 -17 -199 -90 -246 -189 -22 -46 -26 -68 -26 -140 1
-137 7 -146 303 -443 l257 -257 -472 -472 -472 -472 -23 21 c-57 52 -107 68
-213 68 -92 0 -104 -2 -153 -29 -159 -89 -222 -279 -145 -436 27 -56 71 -104
310 -341 257 -255 283 -278 338 -299 49 -18 75 -21 140 -18 95 5 158 33 222
100 108 111 122 293 33 416 -16 23 -30 45 -30 49 0 5 210 218 467 475 l468
468 260 -259 c169 -168 276 -267 305 -282 32 -16 68 -24 127 -27 108 -6 167
15 244 85 77 71 103 132 104 238 0 152 53 89 -789 933 -664 665 -758 756 -811
782 -67 32 -127 41 -198 29z"/>
</g>
</svg>
