<?xml version="1.0" standalone="no"?>
<!DOCTYPE svg PUBLIC "-//W3C//DTD SVG 20010904//EN"
 "http://www.w3.org/TR/2001/REC-SVG-20010904/DTD/svg10.dtd">
<svg version="1.0" xmlns="http://www.w3.org/2000/svg"
 width="256.000000pt" height="256.000000pt" viewBox="0 0 256.000000 256.000000"
 preserveAspectRatio="xMidYMid meet">

<g transform="translate(0.000000,256.000000) scale(0.100000,-0.100000)"
fill="#000000" stroke="none">
<path d="M2084 2505 c-199 -29 -368 -56 -377 -61 -8 -5 -238 -277 -509 -604
l-494 -595 -75 3 c-101 5 -134 -10 -230 -107 -108 -108 -108 -114 11 -235 l90
-92 -120 -119 -119 -119 -59 -6 c-74 -9 -134 -47 -170 -109 -23 -40 -27 -59
-30 -149 -5 -135 8 -183 68 -242 59 -60 107 -73 242 -68 90 3 109 7 149 30 62
36 100 96 109 170 l6 59 119 119 119 120 92 -90 c121 -119 127 -119 235 -11
97 96 112 129 107 230 l-3 75 595 494 c327 271 599 500 604 509 8 14 116 745
116 785 0 32 -45 68 -82 67 -18 -1 -196 -25 -394 -54z m306 -133 c0 -10 -18
-147 -41 -303 -30 -215 -44 -288 -57 -300 -38 -37 -1143 -949 -1149 -949 -4 0
-31 24 -60 52 l-53 53 445 445 c403 403 445 449 445 478 0 42 -30 72 -72 72
-29 0 -75 -42 -478 -445 l-445 -445 -54 54 c-29 30 -52 58 -50 63 2 5 219 268
482 585 l478 576 85 12 c47 7 169 25 272 40 234 35 252 36 252 12z m-1518
-1500 c211 -211 228 -230 228 -263 0 -26 -9 -46 -34 -75 l-35 -39 -268 268
-268 268 39 35 c29 25 49 34 75 34 33 0 52 -17 263 -228z m-267 -372 l-105
-105 -52 53 -53 52 105 105 105 105 52 -52 53 -53 -105 -105z m-263 -157 c69
-69 78 -82 78 -115 0 -59 -33 -78 -137 -78 -76 0 -86 2 -108 25 -23 22 -25 32
-25 108 0 104 19 137 78 137 32 0 46 -9 114 -77z"/>
</g>
</svg>
