<?xml version="1.0" standalone="no"?>
<!DOCTYPE svg PUBLIC "-//W3C//DTD SVG 20010904//EN"
 "http://www.w3.org/TR/2001/REC-SVG-20010904/DTD/svg10.dtd">
<svg version="1.0" xmlns="http://www.w3.org/2000/svg"
 width="200.000000pt" height="200.000000pt" viewBox="0 0 200.000000 200.000000"
 preserveAspectRatio="xMidYMid meet">

<g transform="translate(0.000000,200.000000) scale(0.100000,-0.100000)"
fill="rgb(29,78,216)" stroke="none">
<path d="M783 1870 c-197 -31 -463 -84 -521 -103 l-35 -12 2 -75 c6 -232 48
-640 81 -790 39 -179 83 -252 244 -407 115 -111 431 -378 446 -378 19 0 344
279 466 400 143 143 177 197 213 337 36 140 72 453 89 771 6 119 5 140 -8 147
-50 26 -694 142 -772 139 -13 0 -105 -14 -205 -29z"/>
</g>
</svg>
