<?xml version="1.0" standalone="no"?>
<!DOCTYPE svg PUBLIC "-//W3C//DTD SVG 20010904//EN"
 "http://www.w3.org/TR/2001/REC-SVG-20010904/DTD/svg10.dtd">
<svg version="1.0" xmlns="http://www.w3.org/2000/svg"
 width="512.000000pt" height="512.000000pt" viewBox="0 0 512.000000 512.000000"
 preserveAspectRatio="xMidYMid meet">

<g transform="translate(0.000000,512.000000) scale(0.100000,-0.100000)"
fill="#000000" stroke="none">
<path d="M2515 5113 c-252 -70 -2014 -606 -2036 -619 -18 -11 -41 -32 -53 -47
l-21 -28 0 -1187 c0 -920 3 -1202 13 -1254 95 -503 495 -990 1209 -1471 341
-229 852 -507 933 -507 81 0 592 278 933 507 714 481 1114 968 1209 1471 10
52 13 334 13 1254 l0 1187 -21 28 c-12 15 -35 36 -53 47 -39 23 -2011 615
-2066 621 -22 2 -49 1 -60 -2z m978 -580 l927 -278 0 -1062 c0 -691 -4 -1089
-11 -1140 -22 -167 -114 -371 -244 -545 -83 -110 -282 -317 -413 -429 -250
-215 -577 -434 -947 -636 -185 -101 -236 -125 -259 -119 -62 16 -515 276 -731
419 -355 236 -678 523 -860 765 -130 174 -222 378 -244 545 -7 51 -11 449 -11
1140 l0 1062 918 276 c504 152 924 277 932 278 8 1 432 -123 943 -276z"/>
</g>
</svg>
