<?xml version="1.0" standalone="no"?>
<!DOCTYPE svg PUBLIC "-//W3C//DTD SVG 20010904//EN"
 "http://www.w3.org/TR/2001/REC-SVG-20010904/DTD/svg10.dtd">
<svg version="1.0" xmlns="http://www.w3.org/2000/svg"
 width="200.000000pt" height="200.000000pt" viewBox="0 0 200.000000 200.000000"
 preserveAspectRatio="xMidYMid meet">

<g transform="translate(0.000000,200.000000) scale(0.100000,-0.100000)"
fill="#000000" stroke="none">
<path d="M590 1845 l0 -75 610 0 c597 0 610 0 630 -20 20 -20 20 -33 20 -580
l0 -560 75 0 75 0 -2 578 -3 579 -30 48 c-22 36 -45 57 -84 77 l-53 28 -619 0
-619 0 0 -75z"/>
<path d="M300 1555 l0 -75 605 0 606 0 24 -25 25 -24 0 -556 0 -555 75 0 75 0
0 548 c0 620 0 622 -70 692 -70 70 -67 70 -742 70 l-598 0 0 -75z"/>
<path d="M84 1290 c-25 -13 -49 -35 -63 -60 -22 -39 -22 -39 -19 -549 3 -497
3 -510 24 -538 47 -65 29 -63 667 -63 640 0 623 -2 670 64 l22 31 0 517 c0
506 0 517 -21 544 -11 15 -33 37 -48 48 -27 21 -39 21 -609 24 -568 2 -583 2
-623 -18z m1026 -425 c0 -17 -422 -431 -457 -449 -41 -21 -125 -21 -166 0 -36
18 -207 183 -207 199 0 13 82 95 95 95 5 0 48 -38 96 -85 47 -47 92 -85 100
-85 7 0 110 97 228 215 l216 214 47 -46 c27 -26 48 -52 48 -58z"/>
</g>
</svg>
